<mxfile host="app.diagrams.net" modified="2024-04-06T12:00:54.955Z" agent="Mozilla/5.0 (Windows NT 10.0; Win64; x64) AppleWebKit/537.36 (KHTML, like Gecko) Chrome/121.0.0.0 Safari/537.36 OPR/107.0.0.0" etag="sngbCAvPXc8ecSAIj4cc" version="24.2.1" type="github">
  <diagram name="Seite-1" id="MH0vkTzA5GB4xGjT-MG0">
    <mxGraphModel dx="1162" dy="661" grid="1" gridSize="10" guides="1" tooltips="1" connect="1" arrows="1" fold="1" page="1" pageScale="1" pageWidth="1169" pageHeight="827" math="0" shadow="0">
      <root>
        <mxCell id="0" />
        <mxCell id="1" parent="0" />
        <mxCell id="AsNFca1p0dkPZDZOCNz3-6" style="edgeStyle=orthogonalEdgeStyle;rounded=0;orthogonalLoop=1;jettySize=auto;html=1;" edge="1" parent="1" source="AsNFca1p0dkPZDZOCNz3-1" target="AsNFca1p0dkPZDZOCNz3-5">
          <mxGeometry relative="1" as="geometry" />
        </mxCell>
        <mxCell id="AsNFca1p0dkPZDZOCNz3-8" value="Fet-SW" style="edgeLabel;html=1;align=center;verticalAlign=middle;resizable=0;points=[];" vertex="1" connectable="0" parent="AsNFca1p0dkPZDZOCNz3-6">
          <mxGeometry x="-0.1612" relative="1" as="geometry">
            <mxPoint y="-10" as="offset" />
          </mxGeometry>
        </mxCell>
        <mxCell id="AsNFca1p0dkPZDZOCNz3-11" style="edgeStyle=orthogonalEdgeStyle;rounded=0;orthogonalLoop=1;jettySize=auto;html=1;entryX=0.5;entryY=0;entryDx=0;entryDy=0;endArrow=none;endFill=0;startArrow=classic;startFill=1;" edge="1" parent="1" source="AsNFca1p0dkPZDZOCNz3-1" target="AsNFca1p0dkPZDZOCNz3-10">
          <mxGeometry relative="1" as="geometry" />
        </mxCell>
        <mxCell id="AsNFca1p0dkPZDZOCNz3-12" value="sense" style="edgeLabel;html=1;align=center;verticalAlign=middle;resizable=0;points=[];" vertex="1" connectable="0" parent="AsNFca1p0dkPZDZOCNz3-11">
          <mxGeometry x="-0.0616" y="3" relative="1" as="geometry">
            <mxPoint x="-3" as="offset" />
          </mxGeometry>
        </mxCell>
        <mxCell id="AsNFca1p0dkPZDZOCNz3-16" style="edgeStyle=orthogonalEdgeStyle;rounded=0;orthogonalLoop=1;jettySize=auto;html=1;entryX=0;entryY=0.5;entryDx=0;entryDy=0;startArrow=classic;startFill=1;" edge="1" parent="1" source="AsNFca1p0dkPZDZOCNz3-1" target="AsNFca1p0dkPZDZOCNz3-15">
          <mxGeometry relative="1" as="geometry" />
        </mxCell>
        <mxCell id="AsNFca1p0dkPZDZOCNz3-17" value="IÂ²C" style="edgeLabel;html=1;align=center;verticalAlign=middle;resizable=0;points=[];" vertex="1" connectable="0" parent="AsNFca1p0dkPZDZOCNz3-16">
          <mxGeometry x="-0.3159" y="-4" relative="1" as="geometry">
            <mxPoint x="13" y="-4" as="offset" />
          </mxGeometry>
        </mxCell>
        <mxCell id="AsNFca1p0dkPZDZOCNz3-1" value="BQ76942&lt;div&gt;Balancer&lt;/div&gt;" style="rounded=1;whiteSpace=wrap;html=1;fillColor=#d5e8d4;strokeColor=#82b366;" vertex="1" parent="1">
          <mxGeometry x="520" y="383" width="120" height="94" as="geometry" />
        </mxCell>
        <mxCell id="AsNFca1p0dkPZDZOCNz3-3" style="edgeStyle=orthogonalEdgeStyle;rounded=0;orthogonalLoop=1;jettySize=auto;html=1;startArrow=classic;startFill=1;" edge="1" parent="1" source="AsNFca1p0dkPZDZOCNz3-2" target="AsNFca1p0dkPZDZOCNz3-1">
          <mxGeometry relative="1" as="geometry" />
        </mxCell>
        <mxCell id="AsNFca1p0dkPZDZOCNz3-4" value="Balance Wires" style="edgeLabel;html=1;align=center;verticalAlign=middle;resizable=0;points=[];" vertex="1" connectable="0" parent="AsNFca1p0dkPZDZOCNz3-3">
          <mxGeometry x="0.058" y="-2" relative="1" as="geometry">
            <mxPoint x="4" y="-2" as="offset" />
          </mxGeometry>
        </mxCell>
        <mxCell id="AsNFca1p0dkPZDZOCNz3-7" style="edgeStyle=orthogonalEdgeStyle;rounded=0;orthogonalLoop=1;jettySize=auto;html=1;entryX=0;entryY=0.5;entryDx=0;entryDy=0;" edge="1" parent="1" source="AsNFca1p0dkPZDZOCNz3-2" target="AsNFca1p0dkPZDZOCNz3-5">
          <mxGeometry relative="1" as="geometry">
            <Array as="points">
              <mxPoint x="290" y="250" />
            </Array>
          </mxGeometry>
        </mxCell>
        <mxCell id="AsNFca1p0dkPZDZOCNz3-9" value="Vbat+" style="edgeLabel;html=1;align=center;verticalAlign=middle;resizable=0;points=[];" vertex="1" connectable="0" parent="AsNFca1p0dkPZDZOCNz3-7">
          <mxGeometry x="0.3478" y="-1" relative="1" as="geometry">
            <mxPoint x="17" y="-1" as="offset" />
          </mxGeometry>
        </mxCell>
        <mxCell id="AsNFca1p0dkPZDZOCNz3-13" style="edgeStyle=orthogonalEdgeStyle;rounded=0;orthogonalLoop=1;jettySize=auto;html=1;entryX=0;entryY=0.5;entryDx=0;entryDy=0;" edge="1" parent="1" source="AsNFca1p0dkPZDZOCNz3-2" target="AsNFca1p0dkPZDZOCNz3-10">
          <mxGeometry relative="1" as="geometry">
            <Array as="points">
              <mxPoint x="290" y="620" />
            </Array>
          </mxGeometry>
        </mxCell>
        <mxCell id="AsNFca1p0dkPZDZOCNz3-14" value="Vbat-" style="edgeLabel;html=1;align=center;verticalAlign=middle;resizable=0;points=[];" vertex="1" connectable="0" parent="AsNFca1p0dkPZDZOCNz3-13">
          <mxGeometry x="0.413" y="-1" relative="1" as="geometry">
            <mxPoint x="-2" y="-1" as="offset" />
          </mxGeometry>
        </mxCell>
        <mxCell id="AsNFca1p0dkPZDZOCNz3-2" value="" style="pointerEvents=1;verticalLabelPosition=bottom;shadow=0;dashed=0;align=center;html=1;verticalAlign=top;shape=mxgraph.electrical.miscellaneous.batteryStack;rotation=-90;" vertex="1" parent="1">
          <mxGeometry x="240" y="400" width="100" height="60" as="geometry" />
        </mxCell>
        <mxCell id="AsNFca1p0dkPZDZOCNz3-19" style="edgeStyle=orthogonalEdgeStyle;rounded=0;orthogonalLoop=1;jettySize=auto;html=1;entryX=0.25;entryY=1;entryDx=0;entryDy=0;" edge="1" parent="1" source="AsNFca1p0dkPZDZOCNz3-5" target="AsNFca1p0dkPZDZOCNz3-20">
          <mxGeometry relative="1" as="geometry">
            <mxPoint x="830" y="240" as="targetPoint" />
          </mxGeometry>
        </mxCell>
        <mxCell id="AsNFca1p0dkPZDZOCNz3-21" value="Vpack+" style="edgeLabel;html=1;align=center;verticalAlign=middle;resizable=0;points=[];" vertex="1" connectable="0" parent="AsNFca1p0dkPZDZOCNz3-19">
          <mxGeometry x="-0.1638" y="-1" relative="1" as="geometry">
            <mxPoint x="13" y="-1" as="offset" />
          </mxGeometry>
        </mxCell>
        <mxCell id="AsNFca1p0dkPZDZOCNz3-5" value="Switching-FETs" style="rounded=1;whiteSpace=wrap;html=1;fillColor=#ffe6cc;strokeColor=#d79b00;" vertex="1" parent="1">
          <mxGeometry x="520" y="220" width="120" height="60" as="geometry" />
        </mxCell>
        <mxCell id="AsNFca1p0dkPZDZOCNz3-18" style="edgeStyle=orthogonalEdgeStyle;rounded=0;orthogonalLoop=1;jettySize=auto;html=1;entryX=0.75;entryY=1;entryDx=0;entryDy=0;" edge="1" parent="1" source="AsNFca1p0dkPZDZOCNz3-10" target="AsNFca1p0dkPZDZOCNz3-20">
          <mxGeometry relative="1" as="geometry">
            <mxPoint x="900" y="230" as="targetPoint" />
          </mxGeometry>
        </mxCell>
        <mxCell id="AsNFca1p0dkPZDZOCNz3-22" value="Vpack-" style="edgeLabel;html=1;align=center;verticalAlign=middle;resizable=0;points=[];" vertex="1" connectable="0" parent="AsNFca1p0dkPZDZOCNz3-18">
          <mxGeometry x="-0.6969" y="-1" relative="1" as="geometry">
            <mxPoint x="20" y="-1" as="offset" />
          </mxGeometry>
        </mxCell>
        <mxCell id="AsNFca1p0dkPZDZOCNz3-10" value="10m Ohm&lt;div&gt;Current Sense&lt;/div&gt;" style="rounded=1;whiteSpace=wrap;html=1;fillColor=#ffe6cc;strokeColor=#d79b00;" vertex="1" parent="1">
          <mxGeometry x="535" y="600" width="90" height="40" as="geometry" />
        </mxCell>
        <mxCell id="AsNFca1p0dkPZDZOCNz3-15" value="ESP32-S3&lt;div&gt;Microcotroller&lt;/div&gt;" style="rounded=1;whiteSpace=wrap;html=1;fillColor=#dae8fc;strokeColor=#6c8ebf;" vertex="1" parent="1">
          <mxGeometry x="720" y="350" width="90" height="160" as="geometry" />
        </mxCell>
        <mxCell id="AsNFca1p0dkPZDZOCNz3-20" value="XT60&lt;div&gt;Output&lt;/div&gt;" style="rounded=1;whiteSpace=wrap;html=1;fillColor=#fff2cc;strokeColor=#d6b656;" vertex="1" parent="1">
          <mxGeometry x="810" y="190" width="70" height="40" as="geometry" />
        </mxCell>
      </root>
    </mxGraphModel>
  </diagram>
</mxfile>
